<svg width="266" height="117" viewBox="0 0 266 117" fill="none" xmlns="http://www.w3.org/2000/svg">
<path d="M28.36 68.5825C28.36 67.2625 27.772 66.4825 26.596 66.2425V65.4505C29.188 64.0105 30.496 63.2905 30.52 63.2905C30.736 63.2905 31.12 63.5305 31.672 64.0105C32.224 64.4665 32.56 64.9585 32.68 65.4865C32.728 65.4385 33.46 65.0665 34.876 64.3705C36.292 63.6505 37.012 63.2905 37.036 63.2905C37.516 63.2905 38.044 63.5785 38.62 64.1545C39.724 65.2585 40.276 66.7345 40.276 68.5825V87.6625C40.276 87.8785 38.992 88.4905 36.424 89.4985C33.856 90.5065 32.26 91.0105 31.636 91.0105C30.508 91.0105 29.572 90.2665 28.828 88.7785C26.188 90.2665 24.52 91.0105 23.824 91.0105C23.128 91.0105 22.444 90.5065 21.772 89.4985C21.124 88.4665 20.8 87.5185 20.8 86.6545V68.5825C20.8 67.2625 20.212 66.4825 19.036 66.2425V65.4505L22.96 63.2545C23.488 63.4705 23.98 63.8305 24.436 64.3345C24.892 64.8145 25.12 65.2585 25.12 65.6665V83.9905C25.12 86.2705 25.828 87.4105 27.244 87.4105C27.604 87.4105 27.976 87.3385 28.36 87.1945V68.5825ZM32.716 84.3505C32.716 85.1185 32.86 85.8385 33.148 86.5105C33.46 87.1585 33.88 87.4825 34.408 87.4825C34.936 87.4825 35.44 87.3745 35.92 87.1585V69.8785C35.92 68.6305 35.668 67.8025 35.164 67.3945C34.66 66.9625 33.844 66.7345 32.716 66.7105V84.3505ZM69.87 87.4825C71.334 87.4825 72.162 87.0865 72.354 86.2945H73.146L75.198 89.2465C74.91 89.7025 74.538 90.1105 74.082 90.4705C73.626 90.8305 73.182 91.0105 72.75 91.0105H63.318C62.838 89.5465 62.598 88.4065 62.598 87.5905L71.238 67.1785H67.926C66.462 67.1785 65.634 67.5745 65.442 68.3665H64.65L62.598 65.4145C62.886 64.9585 63.258 64.5505 63.714 64.1905C64.17 63.8305 64.614 63.6505 65.046 63.6505H69.87C71.334 63.6505 72.162 63.2545 72.354 62.4625H73.146C73.482 62.9185 73.902 63.7585 74.406 64.9825C74.934 66.1825 75.198 66.9025 75.198 67.1425L67.026 87.4825H69.87ZM84.0222 87.3385V66.6745C84.0222 66.5065 85.3902 65.9185 88.1262 64.9105C90.8622 63.8785 92.4342 63.3625 92.8422 63.3625C93.2502 63.3625 93.8622 63.8545 94.6782 64.8385C95.5182 65.8225 95.9382 66.7105 95.9382 67.5025V76.9345H97.7022V77.7985L95.9382 78.6985V85.6825C95.9382 87.0025 96.5142 87.7825 97.6662 88.0225V88.8145L93.7422 91.0105C93.2142 90.7945 92.7222 90.4465 92.2662 89.9665C91.8102 89.4625 91.5822 88.9945 91.5822 88.5625V78.6985H88.3422V85.4665C88.3422 86.3545 88.4382 86.9905 88.6302 87.3745C88.8222 87.7585 89.2182 87.9505 89.8182 87.9505V89.0665L82.4382 92.1625L81.8622 91.0105C82.3902 91.0105 82.8942 90.6985 83.3742 90.0745C83.8062 89.4745 84.0222 88.5625 84.0222 87.3385ZM89.7462 66.7105C89.2662 66.7105 88.7982 66.8905 88.3422 67.2505V77.8705L90.4662 76.9345H91.5822V69.3745C91.5822 67.5985 90.9702 66.7105 89.7462 66.7105ZM111.91 66.8185C111.478 66.8185 111.01 66.9985 110.506 67.3585V79.0585C111.13 79.0585 111.826 78.8665 112.594 78.4825C113.362 78.0745 113.746 77.6545 113.746 77.2225V69.4825C113.746 67.7065 113.134 66.8185 111.91 66.8185ZM106.186 87.3385V68.6905C106.186 67.2265 105.694 66.3985 104.71 66.2065V65.4145L108.346 63.3625C108.826 63.5545 109.306 63.9025 109.786 64.4065C110.266 64.9105 110.506 65.3665 110.506 65.7745C113.146 64.1665 114.658 63.3625 115.042 63.3625C115.426 63.3625 116.026 63.8545 116.842 64.8385C117.682 65.8225 118.102 66.7105 118.102 67.5025V77.6185C118.102 77.8105 116.794 78.4225 114.178 79.4545C115.282 83.1745 116.578 85.6825 118.066 86.9785C118.738 87.5305 119.422 87.8065 120.118 87.8065V88.8865C117.886 90.3025 116.47 91.0105 115.87 91.0105C115.078 91.0105 114.07 89.5225 112.846 86.5465C111.646 83.5705 110.998 81.6025 110.902 80.6425L110.506 80.7505V85.4665C110.506 86.3545 110.602 86.9905 110.794 87.3745C110.986 87.7585 111.382 87.9505 111.982 87.9505V89.0665L104.602 92.1625L104.026 91.0105C104.554 91.0105 105.058 90.6985 105.538 90.0745C105.97 89.4745 106.186 88.5625 106.186 87.3385ZM140.301 67.4305V87.6625C140.301 87.8545 138.981 88.4665 136.341 89.4985C133.725 90.5065 132.117 91.0105 131.517 91.0105C130.941 91.0105 130.269 90.4945 129.501 89.4625C128.757 88.4305 128.385 87.1945 128.385 85.7545V68.4745C128.385 67.1785 127.893 66.4225 126.909 66.2065V65.4145L130.545 63.3625C131.073 63.5785 131.565 63.9385 132.021 64.4425C132.477 64.9225 132.705 65.3785 132.705 65.8105L137.169 63.2905C137.601 63.2905 138.225 63.7825 139.041 64.7665C139.881 65.7505 140.301 66.6385 140.301 67.4305ZM134.541 87.6985C134.997 87.6985 135.465 87.5065 135.945 87.1225V70.1305C135.945 68.4265 135.333 67.5745 134.109 67.5745C133.629 67.5745 133.161 67.7545 132.705 68.1145V85.0345C132.705 86.8105 133.317 87.6985 134.541 87.6985ZM171.625 76.2865V69.9505C171.625 69.0625 171.529 68.4265 171.337 68.0425C171.145 67.6585 170.749 67.4665 170.149 67.4665V66.3505L177.529 63.2545L178.105 64.4065C177.577 64.4065 177.073 64.7185 176.593 65.3425C176.161 65.9425 175.945 66.8545 175.945 68.0785V76.2865H177.745V77.1505L175.945 78.0505V85.6825C175.945 87.1465 176.437 87.9745 177.421 88.1665V88.9585L173.785 91.0105C173.257 90.7945 172.765 90.4465 172.309 89.9665C171.853 89.4625 171.625 88.9945 171.625 88.5625V78.0505H168.385V85.4665C168.385 86.3545 168.481 86.9905 168.673 87.3745C168.865 87.7585 169.261 87.9505 169.861 87.9505V89.0665L162.481 92.1625L161.905 91.0105C162.433 91.0105 162.937 90.6985 163.417 90.0745C163.849 89.4745 164.065 88.5625 164.065 87.3385V68.6185C164.065 67.1545 163.573 66.3265 162.589 66.1345V65.3425L166.225 63.2905C166.753 63.5065 167.245 63.8665 167.701 64.3705C168.157 64.8505 168.385 65.3065 168.385 65.7385V77.2585L170.185 76.2865H171.625ZM186.193 85.7545V66.6025C186.193 66.4345 187.561 65.8465 190.297 64.8385C193.033 63.8065 194.605 63.2905 195.013 63.2905C195.421 63.2905 196.033 63.7825 196.849 64.7665C197.689 65.7505 198.109 66.6385 198.109 67.4305V87.6625C198.109 87.8545 196.789 88.4665 194.149 89.4985C191.533 90.5065 189.925 91.0105 189.325 91.0105C188.749 91.0105 188.077 90.4945 187.309 89.4625C186.565 88.4305 186.193 87.1945 186.193 85.7545ZM192.349 87.6985C192.805 87.6985 193.273 87.5065 193.753 87.1225V69.3025C193.753 67.5265 193.141 66.6385 191.917 66.6385C191.437 66.6385 190.969 66.8185 190.513 67.1785V85.0345C190.513 86.8105 191.125 87.6985 192.349 87.6985ZM215.917 87.2665V69.9505C215.917 69.0625 215.821 68.4265 215.629 68.0425C215.437 67.6585 215.041 67.4665 214.441 67.4665V66.3505L221.821 63.2545L222.397 64.4065C221.869 64.4065 221.365 64.7185 220.885 65.3425C220.453 65.9425 220.237 66.8545 220.237 68.0785V85.1065C220.237 85.8985 220.405 86.5825 220.741 87.1585C221.077 87.7345 221.497 88.0225 222.001 88.0225V88.8145C221.833 88.8385 220.525 89.5705 218.077 91.0105C217.909 90.9625 217.705 90.9025 217.465 90.8305C217.225 90.7345 216.901 90.4945 216.493 90.1105C216.109 89.7265 215.917 89.2825 215.917 88.7785C215.773 88.8505 215.365 89.0785 214.693 89.4625C212.917 90.4705 211.861 90.9745 211.525 90.9745C210.757 90.9745 210.037 90.4825 209.365 89.4985C208.693 88.4905 208.357 87.5545 208.357 86.6905V68.5825C208.357 67.2625 207.769 66.4825 206.593 66.2425V65.4505L210.517 63.2545C211.045 63.4705 211.537 63.8305 211.993 64.3345C212.449 64.8145 212.677 65.2705 212.677 65.7025V83.3425C212.677 84.8545 212.893 85.8865 213.325 86.4385C213.781 86.9905 214.645 87.2665 215.917 87.2665ZM232.682 79.5265C232.082 79.5265 231.566 79.0705 231.134 78.1585C230.702 77.2465 230.486 76.1305 230.486 74.8105V67.3225C230.486 66.8665 231.746 66.0865 234.266 64.9825C236.786 63.8545 238.238 63.2905 238.622 63.2905C238.91 63.2905 239.318 63.7705 239.846 64.7305C239.966 64.9705 240.134 65.2945 240.35 65.7025C240.59 66.1105 240.782 66.4465 240.926 66.7105C241.238 67.2865 241.634 67.5745 242.114 67.5745V68.2945C241.73 68.4625 241.214 68.7145 240.566 69.0505C239.054 69.8905 238.238 70.3105 238.118 70.3105C237.758 70.3105 237.302 69.6025 236.75 68.1865C236.222 66.7705 235.79 66.0625 235.454 66.0625C235.022 66.0625 234.806 66.4225 234.806 67.1425V75.1705C234.806 76.1305 235.022 76.6105 235.454 76.6105C235.55 76.6105 236.294 76.2985 237.686 75.6745C239.078 75.0505 239.918 74.7385 240.206 74.7385C240.782 74.7385 241.286 75.2065 241.718 76.1425C242.174 77.0545 242.402 78.2305 242.402 79.6705V87.3385C242.402 87.7945 241.022 88.5865 238.262 89.7145C235.526 90.8185 233.954 91.3705 233.546 91.3705C233.378 91.3705 233.186 91.1665 232.97 90.7585C232.754 90.3505 232.466 89.7745 232.106 89.0305C231.77 88.2625 231.458 87.6265 231.17 87.1225C230.906 86.6185 230.534 86.3665 230.054 86.3665V85.6465C230.438 85.4785 230.942 85.2265 231.566 84.8905C233.102 84.0505 233.93 83.6305 234.05 83.6305C234.41 83.6305 234.914 84.4585 235.562 86.1145C236.234 87.7705 236.738 88.5985 237.074 88.5985C237.314 88.5985 237.542 88.5025 237.758 88.3105C237.974 88.1185 238.082 87.8545 238.082 87.5185V79.4185C238.082 78.3385 237.782 77.7985 237.182 77.7985C236.99 77.7985 236.234 78.0865 234.914 78.6625C233.594 79.2385 232.85 79.5265 232.682 79.5265ZM257.407 66.7825C257.167 66.7825 256.951 66.9025 256.759 67.1425V76.6465H261.835V77.5105L260.035 78.4105H256.759V82.0105C256.759 84.6745 257.023 86.2345 257.551 86.6905C258.343 87.3625 259.207 87.7465 260.143 87.8425C261.079 87.9385 262.087 87.9865 263.167 87.9865V89.0305C263.047 89.0305 262.159 89.3665 260.503 90.0385C258.847 90.6865 257.839 91.0105 257.479 91.0105C256.735 91.0105 255.703 90.4345 254.383 89.2825C253.087 88.1305 252.439 86.8825 252.439 85.5385V66.6025C252.439 66.4345 253.807 65.8465 256.543 64.8385C259.303 63.8065 260.887 63.2905 261.295 63.2905C261.439 63.2905 261.607 63.6385 261.799 64.3345C261.991 65.0305 262.207 65.8705 262.447 66.8545C262.711 67.8385 262.975 68.5705 263.239 69.0505C263.527 69.5065 264.055 69.7345 264.823 69.7345V70.4545C264.295 70.6945 263.395 71.1265 262.123 71.7505C260.875 72.3505 260.203 72.6505 260.107 72.6505C259.747 72.6505 259.291 71.6785 258.739 69.7345C258.187 67.7665 257.743 66.7825 257.407 66.7825Z" fill="black"/>
<rect x="46.2491" y="70.2878" width="4.8572" height="39.817" transform="rotate(-20.6587 46.2491 70.2878)" fill="#FF0033"/>
<rect x="40.1619" y="54.1433" width="4.8572" height="13.7147" transform="rotate(-20.6587 40.1619 54.1433)" fill="#FF0033"/>
<path d="M31.059 22.5873L37.8751 32.1055L47.0193 28.6577L42.0877 37.988L48.9039 47.5061L39.0399 43.7544L34.1084 53.0847L32.9436 41.4357L23.0796 37.684L32.2237 34.2363L31.059 22.5873Z" fill="#FF0033"/>
<path d="M48.2646 14.2088L52.6583 20.3931L58.5004 18.1904L55.3738 24.2152L59.7675 30.3995L53.4414 27.9388L50.3148 33.9636L49.5317 26.418L43.2056 23.9572L49.0477 21.7545L48.2646 14.2088Z" fill="#FF0033"/>
<path d="M12.099 27.372L16.4928 33.5563L22.3348 31.3536L19.2082 37.3784L23.6019 43.5628L17.2759 41.102L14.1493 47.1268L13.3661 39.5812L7.04007 37.1204L12.8822 34.9177L12.099 27.372Z" fill="#FF0033"/>
<path d="M52.6101 35.2653L55.7353 39.2636L60.1954 39.4975L57 42.6178L57.2925 47.6842L54.1673 43.6859L49.7072 43.452L52.9026 40.3317L52.6101 35.2653Z" fill="#FF0033"/>
<path d="M36.3591 5.9318L39.4844 9.93009L43.9444 10.164L40.7491 13.2843L41.0416 18.3507L37.9163 14.3524L33.4562 14.1185L36.6516 10.9982L36.3591 5.9318Z" fill="#FF0033"/>
<path d="M23.7489 46.6202L26.8741 50.6184L31.3342 50.8523L28.1388 53.9727L28.4313 59.039L25.3061 55.0408L20.846 54.8069L24.0414 51.6865L23.7489 46.6202Z" fill="#FF0033"/>
<path d="M18.6853 13.0684L21.8105 17.0667L26.2706 17.3006L23.0752 20.4209L23.3677 25.4873L20.2425 21.489L15.7824 21.2551L18.9778 18.1348L18.6853 13.0684Z" fill="#FF0033"/>
</svg>
